<svg width="200" height="200" viewBox="0 0 24 24" fill="none" xmlns="http://www.w3.org/2000/svg">
  <g fill="none" stroke="black" strokeWidth="1.5" strokeLinecap="round" strokeLinejoin="round">
    <!-- Desk -->
    <rect x="4" y="15" width="16" height="4" fill="#8B4513"/>
    <line x1="4" y1="15" x2="4" y2="20" stroke="#8B4513"/>
    <line x1="20" y1="15" x2="20" y2="20" stroke="#8B4513"/>

    <!-- Chair -->
    <rect x="10" y="17" width="4" height="3" fill="#696969"/>
    <line x1="10" y1="20" x2="10" y2="23" stroke="#696969"/>
    <line x1="14" y1="20" x2="14" y2="23" stroke="#696969"/>
    <line x1="10" y1="23" x2="14" y2="23" stroke="#696969"/>

    <!-- Person -->
    <!-- Head -->
    <circle cx="12" cy="10" r="2" fill="#FDDC9D"/>
    <!-- Body -->
    <line x1="12" y1="12" x2="12" y2="16" stroke="black"/>
    <!-- Arms -->
    <line x1="12" y1="12" x2="10" y2="12" stroke="black"/>
    <line x1="12" y1="12" x2="14" y2="12" stroke="black"/>
    <!-- Legs -->
    <line x1="12" y1="16" x2="10" y2="18" stroke="black"/>
    <line x1="12" y1="16" x2="14" y2="18" stroke="black"/>
    
    <!-- Computer -->
    <rect x="7" y="11" width="4" height="2" fill="#0000FF"/>
    <line x1="7" y1="13" x2="7" y2="15" stroke="black"/>
    <line x1="11" y1="13" x2="11" y2="15" stroke="black"/>
  </g>
</svg>
